<svg width="73" height="58" viewBox="0 0 73 58" fill="none" xmlns="http://www.w3.org/2000/svg">
<path fill-rule="evenodd" clip-rule="evenodd" d="M14.1438 40.5996C14.3562 40.3745 14.6318 40.1918 14.9485 40.0659C15.2653 39.9401 15.6146 39.8746 15.9688 39.8746H27.375C27.98 39.8746 28.5603 40.0655 28.9881 40.4055C29.4159 40.7454 29.6562 41.2064 29.6562 41.6871C29.6562 42.1678 29.4159 42.6289 28.9881 42.9688C28.5603 43.3087 27.98 43.4997 27.375 43.4997H17.1094L6.84375 54.3749H66.1562L55.8906 43.4997H45.625C45.02 43.4997 44.4397 43.3087 44.0119 42.9688C43.5841 42.6289 43.3438 42.1678 43.3438 41.6871C43.3438 41.2064 43.5841 40.7454 44.0119 40.4055C44.4397 40.0655 45.02 39.8746 45.625 39.8746H57.0312C57.3854 39.8746 57.7347 39.9401 58.0515 40.0659C58.3682 40.1918 58.6438 40.3745 58.8562 40.5996L72.5437 55.0999C72.7979 55.3692 72.9527 55.6894 72.9908 56.0247C73.0288 56.3599 72.9486 56.697 72.7592 56.998C72.5697 57.2991 72.2785 57.5523 71.9181 57.7293C71.5577 57.9063 71.1424 58 70.7188 58H2.28125C1.8576 58 1.44231 57.9063 1.08193 57.7293C0.721544 57.5523 0.430304 57.2991 0.240839 56.998C0.0513746 56.697 -0.0288277 56.3599 0.00921889 56.0247C0.0472655 55.6894 0.202058 55.3692 0.456251 55.0999L14.1438 40.5996Z" fill="black"/>
<path fill-rule="evenodd" clip-rule="evenodd" d="M36.5 3.62374C34.7025 3.62374 32.9227 3.90504 31.262 4.45157C29.6014 4.9981 28.0925 5.79917 26.8215 6.80903C25.5505 7.81889 24.5423 9.01777 23.8544 10.3372C23.1665 11.6567 22.8125 13.0708 22.8125 14.499C22.8125 15.9272 23.1665 17.3413 23.8544 18.6608C24.5423 19.9802 25.5505 21.1791 26.8215 22.189C28.0925 23.1988 29.6014 23.9999 31.262 24.5464C32.9227 25.0929 34.7025 25.3742 36.5 25.3742C40.1302 25.3742 43.6116 24.2285 46.1785 22.189C48.7454 20.1495 50.1875 17.3833 50.1875 14.499C50.1875 11.6147 48.7454 8.84853 46.1785 6.80903C43.6116 4.76952 40.1302 3.62374 36.5 3.62374ZM18.25 14.499C18.2503 11.7085 19.264 8.97735 21.1695 6.63326C23.075 4.28916 25.7913 2.43171 28.9924 1.28377C32.1936 0.135835 35.7436 -0.253823 39.2166 0.161556C42.6896 0.576934 45.9379 1.7797 48.5719 3.62554C51.2058 5.47138 53.1135 7.88187 54.066 10.5678C55.0185 13.2537 54.9754 16.1009 53.9417 18.7678C52.9081 21.4348 50.9279 23.8081 48.2388 25.603C45.5497 27.3979 42.2658 28.5381 38.7813 28.887V48.9373C38.7813 49.418 38.5409 49.879 38.1131 50.219C37.6853 50.5589 37.105 50.7498 36.5 50.7498C35.895 50.7498 35.3147 50.5589 34.8869 50.219C34.4591 49.879 34.2188 49.418 34.2188 48.9373V28.8906C29.8067 28.4489 25.7493 26.7425 22.8089 24.0918C19.8685 21.4412 18.2474 18.0323 18.25 14.499Z" fill="black"/>
</svg>
