<svg width="27" height="43" viewBox="0 0 27 43" fill="none" xmlns="http://www.w3.org/2000/svg">
<path fill-rule="evenodd" clip-rule="evenodd" d="M3.18163 1.37115C3.47689 0.901587 3.83144 0.537333 4.22177 0.30252C4.6121 0.0677066 5.02931 -0.0323025 5.44575 0.00911968C5.86218 0.0505419 6.26834 0.23245 6.63729 0.542788C7.00625 0.853126 7.32958 1.28481 7.58587 1.80923L10.6148 8.00689C11.17 9.14375 11.3658 10.6246 11.1464 12.0222L10.2233 17.9081C10.1756 18.2129 10.1782 18.5323 10.2308 18.8351C10.2835 19.1379 10.3844 19.4139 10.5237 19.6362L14.6698 26.2397C14.8096 26.4621 14.9831 26.6231 15.1736 26.7069C15.364 26.7908 15.5648 26.7946 15.7565 26.7181L19.4503 25.248C19.8833 25.0756 20.3353 25.0622 20.7721 25.2088C21.2088 25.3555 21.6189 25.6584 21.9714 26.0946L25.8626 30.9162C27.2615 32.6497 27.3897 35.942 26.1377 37.9336L24.3928 40.7126C23.1441 42.7014 21.2778 43.5749 19.5381 42.5993C15.0852 40.1039 11.0422 36.0437 7.70905 30.72C4.36671 25.412 1.81751 18.9736 0.250537 11.8824C-0.360319 9.11419 0.188101 6.13899 1.43681 4.15015L3.18163 1.37115Z" fill="black"/>
</svg>
