<svg width="65" height="47" viewBox="0 0 65 47" fill="none" xmlns="http://www.w3.org/2000/svg">
<path d="M16.5 4.27273C13.3174 4.27273 10.2652 5.62321 8.01472 8.02709C5.76428 10.431 4.5 13.6913 4.5 17.0909V42.7273H28.5V17.0909C28.5 13.6913 27.2357 10.431 24.9853 8.02709C22.7348 5.62321 19.6826 4.27273 16.5 4.27273ZM16.5 0H48.5C52.7435 0 56.8131 1.80064 59.8137 5.00581C62.8143 8.21098 64.5 12.5581 64.5 17.0909V42.7273C64.5 43.8605 64.0786 44.9473 63.3284 45.7486C62.5783 46.5498 61.5609 47 60.5 47H4.5C3.43913 47 2.42172 46.5498 1.67157 45.7486C0.921427 44.9473 0.5 43.8605 0.5 42.7273V17.0909C0.5 12.5581 2.18571 8.21098 5.18629 5.00581C8.18687 1.80064 12.2565 0 16.5 0ZM27.084 4.27273C28.7883 5.8749 30.153 7.84705 31.087 10.0575C32.021 12.2679 32.5027 14.6658 32.5 17.0909V42.7273H60.5V17.0909C60.5 13.6913 59.2357 10.431 56.9853 8.02709C54.7348 5.62321 51.6826 4.27273 48.5 4.27273H27.084Z" fill="black"/>
<path d="M47.672 23.5H36.5V19.2273H56.5C57.0304 19.2273 57.5391 19.4523 57.9142 19.853C58.2893 20.2536 58.5 20.797 58.5 21.3636V25.6364C58.5 26.203 58.2893 26.7464 57.9142 27.147C57.5391 27.5476 57.0304 27.7727 56.5 27.7727H52.5C52.2372 27.7732 51.9768 27.7184 51.7339 27.6113C51.4909 27.5043 51.2701 27.3472 51.084 27.1489L47.672 23.5ZM20.5 17.0909C20.5 19.4494 18.708 17.0909 16.5 17.0909C14.292 17.0909 12.5 19.4494 12.5 17.0909C12.5 15.9577 12.9214 14.8709 13.6716 14.0696C14.4217 13.2683 15.4391 12.8182 16.5 12.8182C17.5609 12.8182 18.5783 13.2683 19.3284 14.0696C20.0786 14.8709 20.5 15.9577 20.5 17.0909Z" fill="black"/>
</svg>
