<svg width="53" height="48" viewBox="0 0 53 48" fill="none" xmlns="http://www.w3.org/2000/svg">
<path d="M0 24C0 17.6348 2.79196 11.5303 7.76167 7.02944C12.7314 2.52856 19.4718 0 26.5 0C33.5282 0 40.2686 2.52856 45.2383 7.02944C50.208 11.5303 53 17.6348 53 24C53 30.3652 50.208 36.4697 45.2383 40.9706C40.2686 45.4714 33.5282 48 26.5 48C19.4718 48 12.7314 45.4714 7.76167 40.9706C2.79196 36.4697 0 30.3652 0 24ZM24.8438 3.231C22.6244 3.843 20.4216 5.691 18.5931 8.796C17.9906 9.82829 17.4725 10.8992 17.0428 12H24.8438V3.231ZM13.5481 12C14.1002 10.4065 14.8098 8.8612 15.6681 7.383C16.2409 6.40217 16.9023 5.46597 17.6457 4.584C13.5415 6.12548 10.0104 8.69886 7.46969 12H13.5481ZM11.6202 22.5C11.7196 19.869 12.0774 17.346 12.6537 15H5.54513C4.30995 17.3552 3.57291 19.899 3.37212 22.5H11.6202ZM16.0557 15C15.4042 17.4594 15.029 19.9722 14.9361 22.5H24.8438V15H16.0557ZM28.1562 15V22.5H38.0606C37.9688 19.9723 37.5948 17.4595 36.9443 15H28.1562ZM14.9394 25.5C15.0313 28.0277 15.4053 30.5405 16.0557 33H24.8438V25.5H14.9394ZM28.1562 25.5V33H36.9443C37.5638 30.705 37.9579 28.176 38.0639 25.5H28.1562ZM17.0428 36C17.4999 37.158 18.02 38.232 18.5931 39.204C20.4216 42.309 22.6277 44.154 24.8438 44.769V36H17.0428ZM17.6457 43.416C16.9023 42.5341 16.2408 41.5979 15.6681 40.617C14.8098 39.1388 14.1002 37.5935 13.5481 36H7.46969C10.0103 39.3013 13.5414 41.8747 17.6457 43.416ZM12.6537 33C12.0547 30.5342 11.7088 28.0235 11.6202 25.5H3.37212C3.5775 28.17 4.33606 30.699 5.54513 33H12.6537ZM35.3543 43.416C39.4586 41.8747 42.9897 39.3013 45.5303 36H39.4519C38.8997 37.5935 38.1902 39.1388 37.3319 40.617C36.7593 41.5979 36.0978 42.5341 35.3543 43.416ZM28.1562 36V44.769C30.3756 44.157 32.5784 42.309 34.4069 39.204C34.98 38.232 35.5001 37.158 35.9572 36H28.1562ZM40.3463 33H47.4549C48.6639 30.699 49.4225 28.17 49.6279 25.5H41.3797C41.2913 28.0235 40.9453 30.5342 40.3463 33ZM49.6279 22.5C49.427 19.899 48.69 17.3552 47.4549 15H40.3463C40.9226 17.346 41.2804 19.869 41.3797 22.5H49.6279ZM37.3319 7.383C38.1501 8.775 38.8623 10.323 39.4519 12H45.5303C42.9897 8.69875 39.4586 6.12533 35.3543 4.584C36.0764 5.436 36.7389 6.378 37.3319 7.383ZM35.9572 12C35.5276 10.8991 35.0094 9.82827 34.4069 8.796C32.5784 5.691 30.3756 3.846 28.1562 3.231V12H35.9572Z" fill="black"/>
</svg>
