<svg width="82" height="69" viewBox="0 0 82 69" fill="none" xmlns="http://www.w3.org/2000/svg">
<path d="M3.32086 42.1042C3.32086 38.8555 4.06577 35.6384 5.51316 32.637C6.96056 29.6354 9.08195 26.9081 11.7564 24.6109C14.4307 22.3136 17.6056 20.4913 21.0998 19.248C24.5942 18.0048 28.3392 17.3649 32.1214 17.3649V42.1042H3.32086Z" fill="#442781"/>
<path d="M3.32086 42.1042C3.32086 45.3531 4.06577 48.5701 5.51316 51.5718C6.96056 54.5733 9.08195 57.3005 11.7564 59.5978C14.4307 61.895 17.6056 63.7173 21.0998 64.9606C24.5942 66.2039 28.3392 66.8438 32.1214 66.8438V42.1042H3.32086Z" fill="#61459C"/>
<path d="M60.9215 42.1042C60.9215 45.3531 60.1771 48.5701 58.7299 51.5718C57.2825 54.5733 55.1612 57.3005 52.4863 59.5978C49.812 61.895 46.6371 63.7173 43.1427 64.9606C39.6487 66.2039 35.9034 66.8438 32.1214 66.8438V42.1042H60.9215Z" fill="#A992DB"/>
<path d="M78.6792 20.7316C78.6792 30.9905 68.9972 39.307 57.0545 39.307H35.4301V20.7316C35.4301 10.4728 45.1117 2.15625 57.0545 2.15625C68.9972 2.15625 78.6792 10.4728 78.6792 20.7316Z" fill="#FF7917"/>
</svg>
